<?xml version="1.0" encoding="UTF-8" ?>
<!--
* [CC Attack ++ Language en_US (English)] Power by Mason
* Version : V1.0 (BUILD_2023_2_17_21:10)
* Email : admin@almondnet.cn
* Github : https://github.com/MasonDye/CCAttack++
-->
<!DOCTYPE svg PUBLIC "-//W3C//DTD SVG 1.1//EN" "http://www.w3.org/Graphics/SVG/1.1/DTD/svg11.dtd">
<svg width="1024pt" height="1024pt" viewBox="0 0 1024 1024" version="1.1" xmlns="http://www.w3.org/2000/svg">
<g id="#ff0000ff">
<path fill="#ff0000" opacity="1.00" d=" M 456.46 46.73 C 460.56 45.71 464.82 46.02 469.00 45.98 C 495.67 46.02 522.34 45.99 549.00 46.00 C 553.36 46.03 557.72 45.81 562.08 46.15 C 566.20 46.40 569.88 48.68 574.01 48.93 C 578.15 49.17 582.28 49.63 586.31 50.62 C 600.98 52.68 615.45 55.89 629.84 59.36 C 661.31 67.45 691.68 79.54 720.61 94.26 C 725.55 96.63 730.55 98.88 735.26 101.70 C 741.74 105.62 748.58 108.93 754.98 113.01 C 770.42 122.65 785.28 133.19 799.63 144.37 C 805.81 148.78 811.27 154.08 817.19 158.82 C 823.82 164.15 829.51 170.52 836.05 175.96 C 843.12 181.89 848.83 189.17 855.17 195.82 C 862.40 203.31 868.86 211.47 875.60 219.39 C 892.84 241.06 907.96 264.38 921.50 288.52 C 924.78 294.71 927.57 301.14 930.74 307.39 C 937.55 320.94 943.32 334.98 948.86 349.09 C 951.85 356.06 953.86 363.38 956.35 370.53 C 959.25 378.97 961.13 387.70 963.63 396.25 C 967.23 410.75 969.78 425.47 972.40 440.17 C 972.63 442.10 972.67 444.06 972.82 446.01 C 972.95 450.82 975.88 455.07 975.75 459.94 C 976.23 479.62 975.91 499.31 976.00 519.00 C 975.94 533.68 976.19 548.37 975.70 563.04 C 975.61 566.01 974.42 568.77 973.58 571.59 C 972.60 574.61 972.82 577.82 972.50 580.95 C 969.44 598.86 966.35 616.83 961.21 634.30 C 958.03 647.17 953.81 659.77 949.12 672.16 C 945.26 681.28 942.04 690.67 937.76 699.61 C 933.69 709.04 928.89 718.13 924.52 727.43 C 921.37 734.11 917.33 740.32 913.82 746.80 C 910.33 753.46 905.73 759.44 901.90 765.90 C 894.16 777.68 886.21 789.36 877.26 800.26 C 872.97 805.94 868.11 811.14 863.67 816.68 C 859.80 821.43 855.50 825.82 851.21 830.18 C 848.03 833.35 845.33 836.96 842.25 840.22 C 838.20 844.55 833.33 847.99 829.21 852.23 C 822.12 859.52 814.13 865.83 806.40 872.42 C 793.08 883.27 779.17 893.40 764.70 902.64 C 760.35 905.24 756.15 908.08 751.89 910.81 C 746.22 914.25 740.25 917.17 734.58 920.60 C 728.60 924.20 722.12 926.84 715.94 930.06 C 711.70 932.27 707.27 934.07 702.92 936.05 C 677.64 948.52 650.65 957.08 623.42 964.14 C 613.57 966.27 603.77 968.67 593.83 970.41 C 588.51 970.96 583.37 972.74 577.99 972.77 C 573.12 972.70 568.89 975.74 564.04 975.73 C 548.03 976.17 532.01 975.95 516.00 976.00 C 496.65 975.92 477.31 976.22 457.97 975.73 C 453.10 975.77 448.88 972.68 444.01 972.77 C 439.91 972.78 435.95 971.72 431.95 970.98 C 420.96 969.44 410.22 966.56 399.37 964.32 C 371.82 957.40 344.64 948.54 319.07 936.06 C 309.64 931.96 300.43 927.38 291.25 922.77 C 283.88 918.39 276.19 914.57 268.90 910.05 C 261.88 905.38 254.56 901.16 247.69 896.26 C 234.17 887.36 221.40 877.37 209.01 866.96 C 203.56 862.46 198.27 857.76 193.28 852.76 C 188.15 847.51 182.08 843.25 177.34 837.61 C 172.06 831.26 166.03 825.59 160.59 819.38 C 151.50 808.78 142.63 797.99 134.27 786.81 C 126.11 775.20 118.26 763.37 110.77 751.32 C 108.45 747.28 106.26 743.17 103.76 739.25 C 99.78 732.91 96.88 726.01 93.56 719.33 C 87.57 707.69 82.20 695.74 77.42 683.56 C 65.16 654.53 56.97 623.91 51.52 592.92 C 50.89 587.24 49.16 581.73 49.00 576.00 C 48.88 571.52 46.58 567.50 46.22 563.07 C 45.83 558.72 46.02 554.35 45.99 550.00 C 46.01 523.67 46.00 497.33 45.99 471.00 C 46.02 466.67 45.81 462.32 46.33 458.01 C 46.75 454.55 48.35 451.37 48.79 447.92 C 49.10 445.63 49.16 443.31 49.43 441.02 C 53.39 417.23 58.19 393.50 65.63 370.53 C 68.12 363.38 70.05 356.03 73.11 349.08 C 78.98 334.29 84.93 319.51 92.21 305.34 C 96.62 296.47 100.58 287.35 105.96 279.01 C 114.32 264.01 124.09 249.87 133.86 235.78 C 144.26 221.69 155.32 208.07 167.29 195.28 C 173.33 188.99 178.77 182.10 185.43 176.42 C 191.72 171.07 197.32 164.96 203.72 159.72 C 218.68 146.46 234.83 134.62 251.27 123.26 C 264.32 113.87 278.51 106.25 292.56 98.51 C 303.10 93.44 313.52 88.12 324.16 83.27 C 350.06 72.03 376.76 62.29 404.45 56.50 C 414.48 54.17 424.62 52.21 434.82 50.74 C 438.83 49.85 442.89 49.17 447.01 49.00 C 450.29 48.90 453.34 47.61 456.46 46.73 M 320.68 226.63 C 315.00 230.15 308.72 232.74 303.53 237.01 C 303.80 242.96 305.24 248.75 306.14 254.61 C 308.06 266.72 310.35 278.76 311.81 290.93 C 317.62 329.20 324.62 367.29 330.11 405.60 C 333.28 426.26 336.91 446.84 340.22 467.48 C 340.90 472.24 341.32 477.09 342.96 481.66 C 348.00 480.35 352.24 477.25 356.71 474.72 C 361.33 471.99 366.16 469.60 370.61 466.58 C 370.46 460.92 368.99 455.42 368.07 449.87 C 366.07 438.36 363.72 426.91 361.62 415.42 C 360.83 411.75 360.27 408.04 360.09 404.30 C 365.36 399.88 371.82 397.27 377.58 393.59 C 381.80 391.31 385.50 387.61 390.48 387.18 C 402.53 407.62 414.24 428.27 426.13 448.81 C 441.99 476.27 457.85 503.73 473.70 531.20 C 492.11 562.85 510.18 594.70 528.71 626.27 C 529.53 627.90 530.75 629.60 530.52 631.53 C 528.68 633.71 526.24 635.27 524.04 637.05 C 519.34 640.66 515.50 645.23 511.82 649.83 C 505.18 658.17 499.84 667.66 496.97 677.97 C 492.96 691.52 492.92 706.27 497.22 719.75 C 498.36 723.10 499.49 726.47 500.38 729.91 C 495.52 733.77 489.84 736.34 484.55 739.54 C 478.65 742.79 473.04 746.58 466.93 749.46 C 463.91 745.81 461.87 741.52 459.51 737.45 C 454.49 729.13 449.99 720.51 444.82 712.28 C 440.88 714.05 436.98 716.03 433.76 718.96 C 435.20 721.89 436.78 724.76 438.49 727.55 C 442.88 734.86 446.94 742.37 451.35 749.67 C 452.69 751.91 453.85 754.26 454.86 756.67 C 442.65 764.05 430.03 770.74 417.89 778.24 C 419.30 782.40 421.66 786.13 424.18 789.70 C 436.90 782.85 449.10 775.07 461.83 768.26 C 468.53 778.99 474.55 790.13 480.90 801.07 C 481.83 802.58 482.88 804.02 483.96 805.46 C 487.83 803.75 491.63 801.82 494.87 799.06 C 490.39 790.39 485.08 782.18 480.37 773.64 C 478.27 769.75 475.52 766.17 474.06 761.98 C 474.48 760.31 476.54 759.76 477.79 758.79 C 487.58 753.44 497.04 747.52 506.88 742.26 C 510.50 746.66 513.43 751.56 517.03 755.98 C 523.13 763.23 530.02 769.98 538.22 774.83 C 544.16 778.49 550.17 782.47 557.03 784.11 C 559.72 783.48 561.90 781.66 564.14 780.14 C 568.22 777.10 572.72 774.59 576.34 770.96 C 571.59 768.66 566.40 767.56 561.56 765.51 C 542.96 757.91 527.69 742.55 520.12 723.96 C 517.18 716.33 515.07 708.19 515.64 699.96 C 515.92 693.29 518.13 686.90 520.78 680.83 C 524.70 672.03 531.04 664.56 538.00 658.00 C 544.37 652.23 551.20 646.93 558.67 642.64 C 571.94 634.59 587.26 628.58 603.05 629.93 C 613.30 630.39 622.84 635.04 630.97 641.05 C 635.90 644.76 639.85 649.58 643.50 654.52 C 647.25 659.62 650.88 664.90 653.26 670.80 C 657.26 680.67 659.34 691.34 659.30 701.99 C 659.42 705.83 657.90 709.91 659.74 713.53 C 666.13 709.36 672.57 705.22 678.53 700.46 C 678.67 692.09 677.43 683.70 675.32 675.62 C 673.04 666.92 668.32 659.20 664.72 651.05 C 670.07 647.08 676.13 644.26 681.81 640.82 C 687.93 637.47 693.71 633.51 700.04 630.56 C 701.68 632.77 703.20 635.09 704.52 637.52 C 708.59 645.02 713.12 652.25 717.24 659.73 C 718.73 662.48 720.35 665.17 722.13 667.76 C 725.93 666.05 729.52 663.93 732.99 661.63 C 732.25 659.59 731.42 657.59 730.28 655.75 C 725.20 647.41 720.61 638.79 715.52 630.46 C 714.31 628.39 712.99 626.35 712.29 624.05 C 712.54 622.85 713.91 622.44 714.76 621.75 C 726.15 615.04 737.86 608.85 749.05 601.79 C 747.45 597.71 745.24 593.93 742.76 590.34 C 730.04 597.19 717.81 604.92 705.11 611.78 C 697.17 599.74 691.05 586.58 682.99 574.62 C 679.22 576.21 675.64 578.23 672.22 580.46 C 672.87 582.45 673.64 584.42 674.73 586.23 C 679.78 594.58 684.46 603.16 689.52 611.51 C 690.92 613.81 692.09 616.25 693.09 618.77 C 686.47 623.04 679.43 626.61 672.68 630.69 C 667.48 633.60 662.53 636.98 657.04 639.35 C 652.65 635.61 649.21 630.93 644.90 627.11 C 641.18 623.80 637.39 620.53 633.19 617.85 C 614.41 606.23 590.45 603.49 569.53 610.55 C 567.92 610.94 566.27 611.72 564.59 611.39 C 562.79 609.75 561.68 607.54 560.49 605.48 C 554.52 594.55 548.00 583.94 541.91 573.08 C 503.22 506.09 464.57 439.08 425.85 372.11 C 425.02 370.41 423.78 368.55 424.39 366.57 C 426.51 364.84 429.02 363.69 431.41 362.39 C 436.18 359.92 440.75 357.08 445.38 354.37 C 447.12 353.42 448.89 352.32 450.91 352.11 C 453.46 352.94 455.33 354.98 457.30 356.70 C 463.79 362.93 471.14 368.16 477.76 374.24 C 482.29 378.41 487.29 382.01 491.75 386.26 C 494.04 388.28 496.22 390.64 499.13 391.75 C 502.76 391.04 505.74 388.64 508.91 386.89 C 514.88 383.12 521.42 380.24 527.00 375.86 C 523.45 372.06 519.09 369.18 515.11 365.88 C 506.03 358.66 497.23 351.09 488.20 343.81 C 482.07 338.94 475.83 334.20 469.88 329.11 C 456.64 317.62 442.42 307.32 429.21 295.80 C 419.63 288.04 409.91 280.44 400.40 272.59 C 392.07 265.55 383.64 258.63 375.02 251.96 C 369.19 247.45 363.76 242.46 357.76 238.18 C 349.57 232.27 342.28 225.19 333.92 219.54 C 329.18 221.26 325.04 224.17 320.68 226.63 M 557.29 393.99 C 554.94 399.16 552.87 404.46 551.23 409.91 C 554.70 411.49 558.27 412.84 561.86 414.15 C 593.69 426.31 625.53 438.49 657.37 450.63 C 662.51 452.53 667.49 454.89 672.84 456.20 C 675.34 451.05 677.39 445.69 678.91 440.17 C 674.52 438.00 669.85 436.47 665.28 434.74 C 633.19 422.48 601.10 410.20 569.01 397.95 C 565.18 396.41 561.38 394.72 557.29 393.99 M 609.52 451.19 C 607.99 454.98 606.70 458.87 605.84 462.86 C 609.43 464.49 613.15 465.79 616.90 467.04 C 639.90 475.04 662.85 483.19 685.85 491.20 C 689.47 492.54 693.11 493.86 696.84 494.88 C 698.75 490.96 700.32 486.85 700.80 482.49 C 675.55 473.70 650.33 464.80 625.09 455.97 C 619.94 454.27 614.96 451.84 609.52 451.19 M 603.41 495.51 C 594.12 496.59 585.16 500.90 578.75 507.75 C 571.38 515.52 567.32 526.33 567.80 537.03 C 568.28 550.76 576.40 564.03 588.60 570.44 C 600.59 577.20 616.13 576.98 627.94 569.91 C 639.83 563.06 647.69 549.71 647.73 535.98 C 647.94 527.86 645.48 519.77 640.97 513.05 C 633.01 500.82 617.89 493.79 603.41 495.51 M 334.47 524.43 C 323.16 555.48 311.81 586.51 300.54 617.57 C 298.74 622.65 296.62 627.62 295.17 632.83 C 300.47 635.22 305.94 637.33 311.61 638.67 C 324.64 603.28 337.42 567.79 350.36 532.36 C 352.26 527.05 354.60 521.87 355.79 516.33 C 350.60 514.15 345.32 512.21 339.93 510.60 C 337.50 514.96 336.18 519.78 334.47 524.43 M 427.37 577.48 C 413.98 579.04 401.82 588.01 396.27 600.28 C 390.15 612.94 391.56 628.81 399.78 640.21 C 406.81 650.28 418.67 656.81 430.96 657.21 C 442.36 657.72 453.82 652.92 461.60 644.60 C 468.28 637.45 472.40 627.84 472.42 618.01 C 472.85 605.90 467.16 593.85 457.82 586.19 C 449.42 579.29 438.16 576.04 427.37 577.48 M 346.42 585.31 C 335.61 615.53 324.87 645.78 314.20 676.05 C 317.94 678.05 321.97 679.42 326.08 680.44 C 328.52 676.04 329.77 671.14 331.48 666.44 C 338.96 645.59 346.32 624.69 353.75 603.83 C 355.43 599.01 357.40 594.29 358.69 589.35 C 354.76 587.57 350.67 586.12 346.42 585.31 Z" />
<path fill="#ff0000" opacity="1.00" d=" M 334.87 255.82 C 337.03 257.01 339.06 258.43 340.87 260.12 C 345.39 264.30 350.34 268.00 355.10 271.90 C 360.47 276.17 365.52 280.81 370.82 285.16 C 376.29 289.71 381.95 294.02 387.27 298.73 C 395.97 306.40 405.56 313.03 413.74 321.28 C 418.08 325.56 423.34 328.76 427.60 333.13 C 425.94 334.70 424.20 336.21 422.22 337.34 C 412.64 342.70 403.10 348.13 393.65 353.72 C 383.93 359.35 374.10 364.81 364.48 370.62 C 361.56 372.34 358.62 374.35 355.11 374.42 C 353.61 369.89 352.99 365.16 352.29 360.46 C 348.57 338.18 344.81 315.91 341.12 293.62 C 340.08 286.08 337.87 278.78 336.63 271.29 C 335.76 266.17 334.50 261.05 334.87 255.82 Z" />
</g>
<g id="#000000ff">
<path fill="#000000" opacity="1.00" d=" M 320.68 226.63 C 325.04 224.17 329.18 221.26 333.92 219.54 C 342.28 225.19 349.57 232.27 357.76 238.18 C 363.76 242.46 369.19 247.45 375.02 251.96 C 383.64 258.63 392.07 265.55 400.40 272.59 C 409.91 280.44 419.63 288.04 429.21 295.80 C 442.42 307.32 456.64 317.62 469.88 329.11 C 475.83 334.20 482.07 338.94 488.20 343.81 C 497.23 351.09 506.03 358.66 515.11 365.88 C 519.09 369.18 523.45 372.06 527.00 375.86 C 521.42 380.24 514.88 383.12 508.91 386.89 C 505.74 388.64 502.76 391.04 499.13 391.75 C 496.22 390.64 494.04 388.28 491.75 386.26 C 487.29 382.01 482.29 378.41 477.76 374.24 C 471.14 368.16 463.79 362.93 457.30 356.70 C 455.33 354.98 453.46 352.94 450.91 352.11 C 448.89 352.32 447.12 353.42 445.38 354.37 C 440.75 357.08 436.18 359.92 431.41 362.39 C 429.02 363.69 426.51 364.84 424.39 366.57 C 423.78 368.55 425.02 370.41 425.85 372.11 C 464.57 439.08 503.22 506.09 541.91 573.08 C 548.00 583.94 554.52 594.55 560.49 605.48 C 561.68 607.54 562.79 609.75 564.59 611.39 C 566.27 611.72 567.92 610.94 569.53 610.55 C 590.45 603.49 614.41 606.23 633.19 617.85 C 637.39 620.53 641.18 623.80 644.90 627.11 C 649.21 630.93 652.65 635.61 657.04 639.35 C 662.53 636.98 667.48 633.60 672.68 630.69 C 679.43 626.61 686.47 623.04 693.09 618.77 C 692.09 616.25 690.92 613.81 689.52 611.51 C 684.46 603.16 679.78 594.58 674.73 586.23 C 673.64 584.42 672.87 582.45 672.22 580.46 C 675.64 578.23 679.22 576.21 682.99 574.62 C 691.05 586.58 697.17 599.74 705.11 611.78 C 717.81 604.92 730.04 597.19 742.76 590.34 C 745.24 593.93 747.45 597.71 749.05 601.79 C 737.86 608.85 726.15 615.04 714.76 621.75 C 713.91 622.44 712.54 622.85 712.29 624.05 C 712.99 626.35 714.31 628.39 715.52 630.46 C 720.61 638.79 725.20 647.41 730.28 655.75 C 731.42 657.59 732.25 659.59 732.99 661.63 C 729.52 663.93 725.93 666.05 722.13 667.76 C 720.35 665.17 718.73 662.48 717.24 659.73 C 713.12 652.25 708.59 645.02 704.52 637.52 C 703.20 635.09 701.68 632.77 700.04 630.56 C 693.71 633.51 687.93 637.47 681.81 640.82 C 676.13 644.26 670.07 647.08 664.72 651.05 C 668.32 659.20 673.04 666.92 675.32 675.62 C 677.43 683.70 678.67 692.09 678.53 700.46 C 672.57 705.22 666.13 709.36 659.74 713.53 C 657.90 709.91 659.42 705.83 659.30 701.99 C 659.34 691.34 657.26 680.67 653.26 670.80 C 650.88 664.90 647.25 659.62 643.50 654.52 C 639.85 649.58 635.90 644.76 630.97 641.05 C 622.84 635.04 613.30 630.39 603.05 629.93 C 587.26 628.58 571.94 634.59 558.67 642.64 C 551.20 646.93 544.37 652.23 538.00 658.00 C 531.04 664.56 524.70 672.03 520.78 680.83 C 518.13 686.90 515.92 693.29 515.64 699.96 C 515.07 708.19 517.18 716.33 520.12 723.96 C 527.69 742.55 542.96 757.91 561.56 765.51 C 566.40 767.56 571.59 768.66 576.34 770.96 C 572.72 774.59 568.22 777.10 564.14 780.14 C 561.90 781.66 559.72 783.48 557.03 784.11 C 550.17 782.47 544.16 778.49 538.22 774.83 C 530.02 769.98 523.13 763.23 517.03 755.98 C 513.43 751.56 510.50 746.66 506.88 742.26 C 497.04 747.52 487.58 753.44 477.79 758.79 C 476.54 759.76 474.48 760.31 474.06 761.98 C 475.52 766.17 478.27 769.75 480.37 773.64 C 485.08 782.18 490.39 790.39 494.87 799.06 C 491.63 801.82 487.83 803.75 483.96 805.46 C 482.88 804.02 481.83 802.58 480.90 801.07 C 474.55 790.13 468.53 778.99 461.83 768.26 C 449.10 775.07 436.90 782.85 424.18 789.70 C 421.66 786.13 419.30 782.40 417.89 778.24 C 430.03 770.74 442.65 764.05 454.86 756.67 C 453.85 754.26 452.69 751.91 451.35 749.67 C 446.94 742.37 442.88 734.86 438.49 727.55 C 436.78 724.76 435.20 721.89 433.76 718.96 C 436.98 716.03 440.88 714.05 444.82 712.28 C 449.99 720.51 454.49 729.13 459.51 737.45 C 461.87 741.52 463.91 745.81 466.93 749.46 C 473.04 746.58 478.65 742.79 484.55 739.54 C 489.84 736.34 495.52 733.77 500.38 729.91 C 499.49 726.47 498.36 723.10 497.22 719.75 C 492.92 706.27 492.96 691.52 496.97 677.97 C 499.84 667.66 505.18 658.17 511.82 649.83 C 515.50 645.23 519.34 640.66 524.04 637.05 C 526.24 635.27 528.68 633.71 530.52 631.53 C 530.75 629.60 529.53 627.90 528.71 626.27 C 510.18 594.70 492.11 562.85 473.70 531.20 C 457.85 503.73 441.99 476.27 426.13 448.81 C 414.24 428.27 402.53 407.62 390.48 387.18 C 385.50 387.61 381.80 391.31 377.58 393.59 C 371.82 397.27 365.36 399.88 360.09 404.30 C 360.27 408.04 360.83 411.75 361.62 415.42 C 363.72 426.91 366.07 438.36 368.07 449.87 C 368.99 455.42 370.46 460.92 370.61 466.58 C 366.16 469.60 361.33 471.99 356.71 474.72 C 352.24 477.25 348.00 480.35 342.96 481.66 C 341.32 477.09 340.90 472.24 340.22 467.48 C 336.91 446.84 333.28 426.26 330.11 405.60 C 324.62 367.29 317.62 329.20 311.81 290.93 C 310.35 278.76 308.06 266.72 306.14 254.61 C 305.24 248.75 303.80 242.96 303.53 237.01 C 308.72 232.74 315.00 230.15 320.68 226.63 M 334.87 255.82 C 334.50 261.05 335.76 266.17 336.63 271.29 C 337.87 278.78 340.08 286.08 341.12 293.62 C 344.81 315.91 348.57 338.18 352.29 360.46 C 352.99 365.16 353.61 369.89 355.11 374.42 C 358.62 374.35 361.56 372.34 364.48 370.62 C 374.10 364.81 383.93 359.35 393.65 353.72 C 403.10 348.13 412.64 342.70 422.22 337.34 C 424.20 336.21 425.94 334.70 427.60 333.13 C 423.34 328.76 418.08 325.56 413.74 321.28 C 405.56 313.03 395.97 306.40 387.27 298.73 C 381.95 294.02 376.29 289.71 370.82 285.16 C 365.52 280.81 360.47 276.17 355.10 271.90 C 350.34 268.00 345.39 264.30 340.87 260.12 C 339.06 258.43 337.03 257.01 334.87 255.82 Z" />
<path fill="#000000" opacity="1.00" d=" M 557.29 393.99 C 561.38 394.72 565.18 396.41 569.01 397.95 C 601.10 410.20 633.19 422.48 665.28 434.74 C 669.85 436.47 674.52 438.00 678.91 440.17 C 677.39 445.69 675.34 451.05 672.84 456.20 C 667.49 454.89 662.51 452.53 657.37 450.63 C 625.53 438.49 593.69 426.31 561.86 414.15 C 558.27 412.84 554.70 411.49 551.23 409.91 C 552.87 404.46 554.94 399.16 557.29 393.99 Z" />
<path fill="#000000" opacity="1.00" d=" M 609.52 451.19 C 614.96 451.84 619.94 454.27 625.09 455.97 C 650.33 464.80 675.55 473.70 700.80 482.49 C 700.32 486.85 698.75 490.96 696.84 494.88 C 693.11 493.86 689.47 492.54 685.85 491.20 C 662.85 483.19 639.90 475.04 616.90 467.04 C 613.15 465.79 609.43 464.49 605.84 462.86 C 606.70 458.87 607.99 454.98 609.52 451.19 Z" />
<path fill="#000000" opacity="1.00" d=" M 603.41 495.51 C 617.89 493.79 633.01 500.82 640.97 513.05 C 645.48 519.77 647.94 527.86 647.73 535.98 C 647.69 549.71 639.83 563.06 627.94 569.91 C 616.13 576.98 600.59 577.20 588.60 570.44 C 576.40 564.03 568.28 550.76 567.80 537.03 C 567.32 526.33 571.38 515.52 578.75 507.75 C 585.16 500.90 594.12 496.59 603.41 495.51 Z" />
<path fill="#000000" opacity="1.00" d=" M 334.47 524.43 C 336.18 519.78 337.50 514.96 339.93 510.60 C 345.32 512.21 350.60 514.15 355.79 516.33 C 354.60 521.87 352.26 527.05 350.36 532.36 C 337.42 567.79 324.64 603.28 311.61 638.67 C 305.94 637.33 300.47 635.22 295.17 632.83 C 296.62 627.62 298.74 622.65 300.54 617.57 C 311.81 586.51 323.16 555.48 334.47 524.43 Z" />
<path fill="#000000" opacity="1.00" d=" M 427.37 577.48 C 438.16 576.04 449.42 579.29 457.82 586.19 C 467.16 593.85 472.85 605.90 472.42 618.01 C 472.40 627.84 468.28 637.45 461.60 644.60 C 453.82 652.92 442.36 657.72 430.96 657.21 C 418.67 656.81 406.81 650.28 399.78 640.21 C 391.56 628.81 390.15 612.94 396.27 600.28 C 401.82 588.01 413.98 579.04 427.37 577.48 Z" />
<path fill="#000000" opacity="1.00" d=" M 346.42 585.31 C 350.67 586.12 354.76 587.57 358.69 589.35 C 357.40 594.29 355.43 599.01 353.75 603.83 C 346.32 624.69 338.96 645.59 331.48 666.44 C 329.77 671.14 328.52 676.04 326.08 680.44 C 321.97 679.42 317.94 678.05 314.20 676.05 C 324.87 645.78 335.61 615.53 346.42 585.31 Z" />
</g>
</svg>
